<?xml version="1.0" standalone="no"?>
<!DOCTYPE svg PUBLIC "-//W3C//DTD SVG 20010904//EN"
 "http://www.w3.org/TR/2001/REC-SVG-20010904/DTD/svg10.dtd">
<svg version="1.0" xmlns="http://www.w3.org/2000/svg"
 width="260.000000pt" height="260.000000pt" viewBox="0 0 260.000000 260.000000"
 preserveAspectRatio="xMidYMid meet">
<metadata>
Created by potrace 1.11, written by Peter Selinger 2001-2013
</metadata>
<g transform="translate(0.000000,260.000000) scale(0.100000,-0.100000)"
fill="#000000" stroke="none">
<path d="M0 1300 l0 -1300 1300 0 1300 0 0 1300 0 1300 -1300 0 -1300 0 0
-1300z m2319 -345 c-1 -22 -3 -32 -6 -22 -2 9 -9 17 -15 17 -6 0 -8 3 -5 6 3
4 2 14 -3 23 -6 13 -4 17 11 17 16 0 19 -7 18 -41z m-115 7 c3 -5 -1 -9 -9 -9
-8 0 -12 4 -9 9 3 4 7 8 9 8 2 0 6 -4 9 -8z m-8 -44 c-9 -5 -16 -16 -16 -23 0
-8 -5 -15 -11 -15 -5 0 -8 -4 -5 -8 2 -4 -8 -9 -24 -10 -23 -2 -28 1 -24 13 4
8 11 15 17 15 6 0 8 3 4 6 -14 15 37 45 62 36 10 -4 10 -7 -3 -14z m123 -105
c-1 -40 -4 -58 -8 -45 -6 23 -2 112 5 112 2 0 4 -30 3 -67z"/>
</g>
</svg>
